<mxfile host="app.diagrams.net" modified="2023-08-09T13:39:12.710Z" agent="Mozilla/5.0 (Windows NT 10.0; Win64; x64) AppleWebKit/537.36 (KHTML, like Gecko) Chrome/114.0.0.0 Safari/537.36 OPR/100.0.0.0" version="21.6.7" etag="G8unhu4caZZILZud-Gs8" type="github">
  <diagram name="PÃ¡gina-1" id="M9tJ1GaRSzrTTLKaU_H6">
    <mxGraphModel>
      <root>
        <mxCell id="0" />
        <mxCell id="1" parent="0" />
      </root>
    </mxGraphModel>
  </diagram>
</mxfile>
